<svg id="Layer_1" data-name="Layer 1" xmlns="http://www.w3.org/2000/svg" viewBox="0 0 144 144"><defs><style>.cls-1{fill:#fff;}</style></defs><path class="cls-1" d="M135.91,37.63v68.74a5.3,5.3,0,0,1-2.5,3.91l-13.78,8V25.76l13.78,8A5.19,5.19,0,0,1,135.91,37.63ZM75,144l16.27-9.38V90L75,99.36ZM97.3,60.66,52.75,86.42v48.2L68.91,144V96.16L97.3,79.77v51.29l16.27-9.26V22.2L97.3,12.94ZM68.91,0,52.76,9.38V54l16.15-9.37ZM91.24,9.38,75,0V47.84L46.58,64.22V12.94L30.42,22.32V121.8l16.16,9.26V83.34L91.25,57.57ZM8.09,37.63v68.74a5.18,5.18,0,0,0,2.5,3.91l13.78,8V25.76l-13.78,8A5.34,5.34,0,0,0,8.09,37.63Z"/></svg>