<svg id="Layer_1" data-name="Layer 1" xmlns="http://www.w3.org/2000/svg" viewBox="0 0 256 64"><defs><style>.cls-1{fill:#fff;}</style></defs><path class="cls-1" d="M171.48,25.76V44.33a.51.51,0,0,1-.51.53h-6.73a.53.53,0,0,1-.54-.51v-17a1.62,1.62,0,0,0-1.61-1.61h-1.78V44.33a.51.51,0,0,1-.51.53h-6.69a.53.53,0,0,1-.54-.51v0h.08V21a.85.85,0,0,1,.85-.84h12.4A5.57,5.57,0,0,1,171.48,25.76Zm55.19.35V39c0,3.83-2,5.14-5.47,5.9a23.93,23.93,0,0,1-4,.39,20.32,20.32,0,0,1-4-.39c-3.47-.76-5.47-2.07-5.47-5.9V26.07c0-3.84,2-5.14,5.47-5.91a23,23,0,0,1,4-.38,19.47,19.47,0,0,1,4,.38C224.63,21,226.63,22.23,226.67,26.11Zm-7.51,1.22a1.62,1.62,0,0,0-1.62-1.61h-.65a1.63,1.63,0,0,0-1.62,1.61V37.69a1.62,1.62,0,0,0,1.62,1.61h.65a1.62,1.62,0,0,0,1.62-1.61Zm-13.79-7.17h-2.92V15.63a.52.52,0,0,0-.52-.53h-6.38a.53.53,0,0,0-.54.51V39.26a5.57,5.57,0,0,0,5.59,5.56h4.77a.52.52,0,0,0,.54-.51V39.88a.53.53,0,0,0-.51-.54h-1.33a1.62,1.62,0,0,1-1.62-1.61V26.83h2.92a.52.52,0,0,0,.54-.51V20.7a.53.53,0,0,0-.51-.54Zm-12.78.54V49c0,3.83-2,5.14-5.47,5.9a24.05,24.05,0,0,1-4,.39,20.22,20.22,0,0,1-4-.39c-3.47-.76-5.47-2.07-5.47-5.9v-2a.53.53,0,0,1,.51-.54h6.69a.53.53,0,0,1,.54.51v1.07a1.29,1.29,0,0,0,1.29,1.3h.79a1.3,1.3,0,0,0,1.31-1.28V44.82h-5.51a5.57,5.57,0,0,1-5.59-5.56V25.72a5.59,5.59,0,0,1,5.59-5.56h12.71A.56.56,0,0,1,192.59,20.7Zm-7.74,5h-1.77a1.62,1.62,0,0,0-1.62,1.61v10.4a1.62,1.62,0,0,0,1.62,1.61h1.77Zm57.5-5.52H230a.85.85,0,0,0-.85.84V44.33H229a.51.51,0,0,0,.51.53h6.69a.53.53,0,0,0,.54-.51V25.72h1.77a1.63,1.63,0,0,1,1.62,1.61v17a.52.52,0,0,0,.52.53h6.72a.53.53,0,0,0,.54-.51V25.76A5.57,5.57,0,0,0,242.35,20.2Zm-92.94,0h-6.85a.53.53,0,0,0-.54.51V44.33a.51.51,0,0,0,.51.53h6.85a.51.51,0,0,0,.53-.51s0,0,0,0h0V20.7a.53.53,0,0,0-.51-.54Zm-10.36,0h-2.92V15.63a.52.52,0,0,0-.52-.53h-6.38a.53.53,0,0,0-.54.51V39.26a5.57,5.57,0,0,0,5.59,5.56h4.78a.51.51,0,0,0,.53-.51V39.88a.54.54,0,0,0-.53-.54h-1.31a1.62,1.62,0,0,1-1.62-1.61V26.83h2.92a.52.52,0,0,0,.54-.51V20.7a.53.53,0,0,0-.51-.54Zm-18.25,0H108.4a.85.85,0,0,0-.85.84V44.33h-.08a.52.52,0,0,0,.52.53h6.68a.52.52,0,0,0,.54-.51V25.72H117a1.62,1.62,0,0,1,1.61,1.61v17a.52.52,0,0,0,.52.53h6.72a.52.52,0,0,0,.54-.51V25.76a5.57,5.57,0,0,0-5.58-5.56Zm-16.6,0H97.54a.53.53,0,0,0-.54.51V39.3H95.23a1.62,1.62,0,0,1-1.62-1.61v-17a.54.54,0,0,0-.52-.54H86.37a.53.53,0,0,0-.54.51V39.26a5.57,5.57,0,0,0,5.58,5.56h12.4a.84.84,0,0,0,.85-.84V20.7h.08a.53.53,0,0,0-.51-.54ZM82.67,10.69H75.31a.53.53,0,0,0-.54.51V23.5H68.84V11.22a.51.51,0,0,0-.51-.53H61a.53.53,0,0,0-.54.51V44.36a.53.53,0,0,0,.51.54h7.39a.51.51,0,0,0,.53-.51,0,0,0,0,0,0,0V30.94h5.94V44.36a.53.53,0,0,0,.51.54h7.38a.53.53,0,0,0,.54-.51V11.22a.51.51,0,0,0-.51-.53Z"/><path class="cls-1" d="M52.09,21.11V43.42a1.7,1.7,0,0,1-.81,1.27l-4.47,2.58v-30l4.47,2.59A1.65,1.65,0,0,1,52.09,21.11ZM32.31,55.64l5.28-3V38.1l-5.28,3Zm7.25-27.06L25.1,37V52.59l5.24,3V40.11l9.22-5.32V51.44l5.28-3V16.1l-5.28-3ZM30.34,8.89l-5.24,3V26.43l5.24-3.05Zm7.25,3-5.28-3V24.42l-9.22,5.32V13.09l-5.24,3.05V48.43l5.24,3V35.94l14.5-8.36Zm-27,9.17V43.42a1.65,1.65,0,0,0,.81,1.27l4.47,2.58v-30l-4.47,2.59A1.7,1.7,0,0,0,10.6,21.11Z"/></svg>