<svg xmlns="http://www.w3.org/2000/svg" viewBox="0 0 128 32"><title>Huntington Logo</title><path d="M85.8069,12.6405v9.59a.2714.2714,0,0,1-.2785.2774H82.0668a.2714.2714,0,0,1-.2785-.2774V13.4528a.8388.8388,0,0,0-.8355-.8321h-.9151v9.61a.2714.2714,0,0,1-.2785.2774H76.3175a.2714.2714,0,0,1-.2785-.2774h.04V10.2034a.4407.4407,0,0,1,.4377-.4359h6.4058A2.8809,2.8809,0,0,1,85.8069,12.6405Zm28.508.1783v6.6376c0,1.9813-1.0345,2.655-2.825,3.0512a12.0445,12.0445,0,0,1-2.049.1982,10.2655,10.2655,0,0,1-2.0493-.1982c-1.79-.3962-2.8247-1.07-2.8247-3.0512V12.799c0-1.9813,1.0343-2.655,2.8247-3.0513a12.06,12.06,0,0,1,2.0493-.1981,10.2732,10.2732,0,0,1,2.049.1981C113.26,10.1638,114.2948,10.8177,114.3149,12.8188Zm-3.8793.6341a.839.839,0,0,0-.8356-.8322h-.3382a.8391.8391,0,0,0-.8357.8322v5.35a.8391.8391,0,0,0,.8357.8321H109.6a.8389.8389,0,0,0,.8356-.8321Zm-7.1222-3.7052h-1.5119V7.41a.2714.2714,0,0,0-.2786-.2774H98.2405a.2712.2712,0,0,0-.2783.2774V19.6149a2.8807,2.8807,0,0,0,2.8845,2.8729h2.4667a.2713.2713,0,0,0,.2785-.2774V19.9319a.2713.2713,0,0,0-.2785-.2774h-.6762a.8391.8391,0,0,1-.8357-.8322v-5.627h1.5119a.2713.2713,0,0,0,.2785-.2775V10.0251A.2713.2713,0,0,0,103.3134,9.7477Zm-6.6045.2774V24.6475c0,1.9813-1.0347,2.6552-2.8252,3.0515a12.0736,12.0736,0,0,1-2.0488.1981,10.2869,10.2869,0,0,1-2.0493-.1981c-1.79-.3963-2.8247-1.07-2.8247-3.0515v-1.01a.2713.2713,0,0,1,.2783-.2776h3.4416a.2714.2714,0,0,1,.2786.2776v.5347a.67.67,0,0,0,.6765.6737h.3979a.6694.6694,0,0,0,.6762-.6737V22.4878H89.8652a2.8808,2.8808,0,0,1-2.8846-2.8729V12.6207a2.8809,2.8809,0,0,1,2.8846-2.873H96.43A.2841.2841,0,0,1,96.7089,10.0251ZM92.71,12.6207h-.9151a.8389.8389,0,0,0-.8355.8321v5.3695a.839.839,0,0,0,.8355.8322H92.71Zm29.7016-2.8532h-6.4058a.4407.4407,0,0,0-.4377.4359V22.23h-.04a.2714.2714,0,0,0,.2785.2774h3.4417a.2714.2714,0,0,0,.2785-.2774V12.6207h.9151a.8388.8388,0,0,1,.8355.8321V22.23a.2715.2715,0,0,0,.2786.2774h3.4615a.2714.2714,0,0,0,.2785-.2774v-9.59A2.8809,2.8809,0,0,0,122.4116,9.7675Zm-48.004-.02H70.8665a.2715.2715,0,0,0-.2785.2774V22.23a.2715.2715,0,0,0,.2785.2774h3.5214a.2713.2713,0,0,0,.2783-.2774h.02V10.0251A.2716.2716,0,0,0,74.4076,9.7477Zm-5.3513,0H67.5442V7.41a.2713.2713,0,0,0-.2783-.2774H63.9833a.2714.2714,0,0,0-.2785.2774V19.6149A2.8808,2.8808,0,0,0,66.59,22.4878h2.4668a.2712.2712,0,0,0,.2783-.2774V19.9319a.2839.2839,0,0,0-.2783-.2774H68.38a.8391.8391,0,0,1-.8357-.8322v-5.627h1.5121a.2712.2712,0,0,0,.2783-.2775V10.0251A.2712.2712,0,0,0,69.0563,9.7477Zm-9.43.02H53.2207a.4406.4406,0,0,0-.4377.4359V22.23h-.04a.2714.2714,0,0,0,.2785.2774h3.4417a.2714.2714,0,0,0,.2785-.2774V12.6207h.9151a.8389.8389,0,0,1,.8356.8321V22.23a.2714.2714,0,0,0,.2785.2774h3.4615a.2714.2714,0,0,0,.2785-.2774v-9.59A2.8809,2.8809,0,0,0,59.6265,9.7675Zm-8.5743-.02H47.6106a.2713.2713,0,0,0-.2785.2773v9.61h-.9152a.8388.8388,0,0,1-.8355-.8321V10.0251a.2714.2714,0,0,0-.2785-.2773H41.8414a.2713.2713,0,0,0-.2785.2773v9.59a2.8807,2.8807,0,0,0,2.8845,2.8728h6.4059a.4406.4406,0,0,0,.4377-.4357V10.0251h.04A.2713.2713,0,0,0,51.0522,9.7478ZM39.9316,4.8538h-3.8a.2714.2714,0,0,0-.2785.2774v6.34H32.79v-6.34a.2714.2714,0,0,0-.2785-.2774h-3.8a.2714.2714,0,0,0-.2785.2774V22.25a.2714.2714,0,0,0,.2785.2774h3.8A.2714.2714,0,0,0,32.79,22.25V15.3154h3.0636V22.25a.2714.2714,0,0,0,.2785.2774h3.8A.2714.2714,0,0,0,40.21,22.25V5.1312A.2714.2714,0,0,0,39.9316,4.8538Z" fill="#766d65" /><path d="M24.1367,10.2372V21.7629a.8926.8926,0,0,1-.4183.657l-2.3106,1.3337V8.2466L23.7184,9.58A.8706.8706,0,0,1,24.1367,10.2372ZM13.9182,28.0732l2.7289-1.5726V19.0158l-2.7289,1.5726ZM17.663,14.099l-7.47,4.32v8.082l2.709,1.5726V20.051l4.7607-2.7471v8.6l2.7288-1.5527V7.6493L17.663,6.0966ZM12.9023,3.9268,10.1934,5.4994v7.4848l2.7089-1.5726ZM16.6472,5.5l-2.729-1.5727v8.0223L9.1576,14.6962v-8.6L6.4486,7.6693V24.3508l2.709,1.5526V17.9011l7.49-4.32ZM2.7038,10.2371V21.7629a.87.87,0,0,0,.4183.6569l2.3106,1.3337V8.2465L3.1221,9.58A.8922.8922,0,0,0,2.7038,10.2371Z" fill="#5ba63c" /></svg>
